<svg width="40" height="52" viewBox="0 0 40 52" xmlns="http://www.w3.org/2000/svg">
  <path d="M20 6 Q22 2 24 6" fill="none" stroke="#33691e" stroke-width="2.5" stroke-linecap="round"/>
  <path d="M20 7 Q26 3 25 10 Q23 8 20 7 Z" fill="#558b2f"/>
  <ellipse cx="20" cy="30" rx="16" ry="18" fill="#e65100"/>
  <ellipse cx="12" cy="30" rx="7" ry="17" fill="#ef6c00"/>
  <ellipse cx="20" cy="30" rx="7" ry="18" fill="#f57c00"/>
  <ellipse cx="28" cy="30" rx="7" ry="17" fill="#ef6c00"/>
  <polygon points="11,27 15,22 19,27" fill="#120400"/>
  <polygon points="21,27 25,22 29,27" fill="#120400"/>
  <polygon points="18,30 22,30 20,34" fill="#120400"/>
  <path d="M8,37 L11,33 L14,37 L17,33 L20,37 L23,33 L26,37 L29,33 L32,37" fill="none" stroke="#120400" stroke-width="1.8" stroke-linejoin="round" stroke-linecap="round"/>
</svg>
